<svg width="97" height="17" viewBox="0 0 97 17" fill="none" xmlns="http://www.w3.org/2000/svg">
<path d="M8.85938 0.73999L11.5867 4.98615L16.4678 6.26785L13.2723 10.1738L13.5617 15.2121L8.85938 13.38L4.15709 15.2121L4.44647 10.1738L1.25092 6.26785L6.13205 4.98615L8.85938 0.73999Z" fill="#FBA333"/>
<path d="M28.8594 0.73999L31.5867 4.98615L36.4678 6.26785L33.2723 10.1738L33.5617 15.2121L28.8594 13.38L24.1571 15.2121L24.4465 10.1738L21.2509 6.26785L26.1321 4.98615L28.8594 0.73999Z" fill="#FBA333"/>
<path d="M48.8594 0.73999L51.5867 4.98615L56.4678 6.26785L53.2723 10.1738L53.5617 15.2121L48.8594 13.38L44.1571 15.2121L44.4465 10.1738L41.2509 6.26785L46.1321 4.98615L48.8594 0.73999Z" fill="#FBA333"/>
<path d="M68.8594 0.73999L71.5867 4.98615L76.4678 6.26785L73.2723 10.1738L73.5617 15.2121L68.8594 13.38L64.1571 15.2121L64.4465 10.1738L61.2509 6.26785L66.1321 4.98615L68.8594 0.73999Z" fill="#FBA333"/>
<path d="M88.8594 0.73999L91.5867 4.98615L96.4678 6.26785L93.2723 10.1738L93.5617 15.2121L88.8594 13.38L84.1571 15.2121L84.4465 10.1738L81.2509 6.26785L86.1321 4.98615L88.8594 0.73999Z" fill="#FBA333"/>
</svg>
